<svg width="514" height="514" viewBox="0 0 514 514" fill="none" xmlns="http://www.w3.org/2000/svg">
<path d="M185.429 237.662V294H174.134V237.662H153.994V227.456H205.569V237.662H185.429ZM229.17 294H217.875V227.456H235.429L255.433 269.233L275.574 227.456H292.992V294H281.833V242.016L258.563 288.148H252.304L229.17 242.016V294ZM319.122 244.194C319.122 247.006 320.165 249.047 322.252 250.318C324.339 251.86 328.784 253.447 335.588 255.08C342.755 256.804 347.972 259.163 351.238 262.157C354.594 265.151 356.273 269.46 356.273 275.085C356.273 280.981 354.05 285.744 349.605 289.373C345.25 293.002 339.534 294.816 332.458 294.816C322.207 294.816 312.953 291.188 304.697 283.93L311.774 275.493C318.668 281.39 325.654 284.338 332.73 284.338C336.268 284.338 339.126 283.567 341.304 282.025C343.481 280.392 344.569 278.305 344.569 275.765C344.569 273.225 343.572 271.229 341.576 269.777C339.671 268.326 336.223 267.01 331.233 265.831C322.615 263.835 316.627 261.476 313.271 258.755C309.369 255.761 307.419 251.179 307.419 245.01C307.419 239.023 309.596 234.351 313.951 230.994C318.306 227.546 323.885 225.823 330.689 225.823C339.852 225.823 347.699 228.499 354.231 233.852L348.244 242.289C346.248 240.474 343.572 239.023 340.215 237.934C336.858 236.755 333.547 236.165 330.281 236.165C326.924 236.165 324.202 236.891 322.116 238.342C320.12 239.703 319.122 241.654 319.122 244.194Z" fill="white"/>
<path d="M177.353 312.909C179.333 312.909 180.86 313.393 181.934 314.361C183.008 315.313 183.544 316.659 183.544 318.398C183.544 320.167 183.015 321.543 181.957 322.526C180.898 323.509 179.318 324 177.216 324H173.542V312.909H177.353ZM177.285 314.633H175.425V322.231H177.489C178.849 322.231 179.885 321.913 180.596 321.278C181.307 320.628 181.662 319.683 181.662 318.443C181.662 315.903 180.203 314.633 177.285 314.633ZM187.458 324H185.689V315.563H187.458V324ZM185.462 313.068C185.462 312.766 185.568 312.509 185.78 312.297C186.007 312.07 186.279 311.957 186.596 311.957C186.899 311.957 187.156 312.07 187.368 312.297C187.594 312.509 187.708 312.766 187.708 313.068C187.708 313.386 187.594 313.658 187.368 313.885C187.156 314.096 186.899 314.202 186.596 314.202C186.279 314.202 186.014 314.089 185.803 313.862C185.576 313.65 185.462 313.386 185.462 313.068ZM197.853 315.563V322.911C197.853 324.363 197.46 325.474 196.673 326.245C195.887 327.016 194.836 327.402 193.521 327.402C192.281 327.402 191.132 327.001 190.073 326.2L190.912 324.862C191.759 325.482 192.598 325.792 193.43 325.792C195.244 325.792 196.152 324.885 196.152 323.07V321.981C195.895 322.48 195.517 322.881 195.018 323.184C194.519 323.471 193.967 323.614 193.362 323.614C192.243 323.614 191.321 323.229 190.595 322.458C189.884 321.671 189.529 320.696 189.529 319.532C189.529 318.353 189.884 317.377 190.595 316.606C191.321 315.82 192.243 315.427 193.362 315.427C194.481 315.427 195.388 315.888 196.084 316.81V315.563H197.853ZM193.657 322.004C194.367 322.004 194.95 321.762 195.403 321.278C195.857 320.779 196.084 320.167 196.084 319.441C196.084 318.7 195.849 318.088 195.38 317.604C194.927 317.105 194.345 316.856 193.634 316.856C192.923 316.856 192.349 317.113 191.91 317.627C191.487 318.126 191.275 318.731 191.275 319.441C191.275 320.167 191.495 320.779 191.933 321.278C192.372 321.762 192.946 322.004 193.657 322.004ZM202.197 324H200.428V315.563H202.197V324ZM200.201 313.068C200.201 312.766 200.307 312.509 200.518 312.297C200.745 312.07 201.017 311.957 201.335 311.957C201.637 311.957 201.894 312.07 202.106 312.297C202.333 312.509 202.446 312.766 202.446 313.068C202.446 313.386 202.333 313.658 202.106 313.885C201.894 314.096 201.637 314.202 201.335 314.202C201.017 314.202 200.753 314.089 200.541 313.862C200.314 313.65 200.201 313.386 200.201 313.068ZM206.966 316.992V321.278C206.966 321.687 207.072 322.012 207.284 322.254C207.511 322.48 207.813 322.594 208.191 322.594C208.539 322.594 208.902 322.405 209.28 322.027L210.005 323.297C209.37 323.856 208.682 324.136 207.941 324.136C207.17 324.136 206.52 323.871 205.991 323.342C205.462 322.798 205.197 322.095 205.197 321.233V316.992H204.131V315.563H205.197V312.909H206.966V315.563H209.189V316.992H206.966ZM218.254 324H216.644V322.866C215.933 323.713 214.996 324.136 213.832 324.136C212.94 324.136 212.206 323.887 211.632 323.388C211.072 322.874 210.792 322.208 210.792 321.392C210.792 320.575 211.095 319.955 211.7 319.532C212.305 319.109 213.136 318.897 214.195 318.897H216.508V318.579C216.508 317.46 215.88 316.901 214.625 316.901C213.839 316.901 213.023 317.188 212.176 317.763L211.382 316.652C212.425 315.835 213.59 315.427 214.875 315.427C215.918 315.427 216.742 315.691 217.347 316.221C217.952 316.735 218.254 317.513 218.254 318.557V324ZM216.485 320.144H214.489C213.204 320.144 212.562 320.545 212.562 321.346C212.562 321.755 212.72 322.072 213.038 322.299C213.355 322.511 213.801 322.616 214.376 322.616C214.966 322.616 215.465 322.458 215.873 322.14C216.281 321.808 216.485 321.377 216.485 320.847V320.144ZM222.521 324H220.752V312.229H222.521V324ZM224.864 322.934C224.864 322.601 224.977 322.322 225.204 322.095C225.431 321.868 225.71 321.755 226.043 321.755C226.376 321.755 226.655 321.868 226.882 322.095C227.124 322.322 227.245 322.601 227.245 322.934C227.245 323.267 227.124 323.554 226.882 323.796C226.655 324.023 226.376 324.136 226.043 324.136C225.695 324.136 225.423 324.015 225.226 323.773C224.985 323.546 224.864 323.267 224.864 322.934ZM237.981 312.909C239.962 312.909 241.489 313.393 242.563 314.361C243.636 315.313 244.173 316.659 244.173 318.398C244.173 320.167 243.644 321.543 242.586 322.526C241.527 323.509 239.947 324 237.845 324H234.171V312.909H237.981ZM237.913 314.633H236.054V322.231H238.118C239.478 322.231 240.514 321.913 241.225 321.278C241.935 320.628 242.291 319.683 242.291 318.443C242.291 315.903 240.832 314.633 237.913 314.633ZM254.166 320.553H247.543C247.588 321.157 247.868 321.649 248.382 322.027C248.896 322.405 249.493 322.594 250.174 322.594C251.247 322.594 252.049 322.261 252.578 321.596L253.599 322.707C252.691 323.66 251.504 324.136 250.038 324.136C248.828 324.136 247.815 323.735 246.999 322.934C246.182 322.133 245.774 321.074 245.774 319.759C245.774 318.474 246.19 317.43 247.021 316.629C247.853 315.827 248.858 315.427 250.038 315.427C251.217 315.427 252.2 315.782 252.986 316.493C253.772 317.203 254.166 318.148 254.166 319.328V320.553ZM252.397 319.146C252.397 318.466 252.177 317.929 251.739 317.536C251.315 317.143 250.764 316.946 250.083 316.946C249.403 316.946 248.805 317.151 248.291 317.559C247.792 317.967 247.543 318.496 247.543 319.146H252.397ZM259.04 324.136C257.679 324.136 256.454 323.713 255.365 322.866L256.227 321.482C257.195 322.223 258.148 322.594 259.085 322.594C259.478 322.594 259.788 322.503 260.015 322.322C260.257 322.125 260.378 321.883 260.378 321.596C260.378 321.173 259.818 320.795 258.699 320.462C258.669 320.447 258.631 320.432 258.586 320.416C258.556 320.401 258.533 320.394 258.518 320.394C256.764 319.925 255.887 319.131 255.887 318.012C255.887 317.226 256.182 316.599 256.772 316.13C257.376 315.661 258.17 315.427 259.153 315.427C260.121 315.427 261.043 315.714 261.92 316.289L261.262 317.604C260.582 317.151 259.833 316.924 259.017 316.924C258.064 316.924 257.588 317.226 257.588 317.831C257.588 318.088 257.679 318.277 257.86 318.398C258.057 318.504 258.374 318.61 258.813 318.715C259.478 318.897 260.038 319.078 260.491 319.26C260.794 319.396 261.058 319.54 261.285 319.691C261.86 320.084 262.147 320.681 262.147 321.482C262.147 322.269 261.852 322.911 261.262 323.41C260.688 323.894 259.947 324.136 259.04 324.136ZM265.941 324H264.172V315.563H265.941V324ZM263.945 313.068C263.945 312.766 264.051 312.509 264.262 312.297C264.489 312.07 264.761 311.957 265.079 311.957C265.381 311.957 265.638 312.07 265.85 312.297C266.077 312.509 266.19 312.766 266.19 313.068C266.19 313.386 266.077 313.658 265.85 313.885C265.638 314.096 265.381 314.202 265.079 314.202C264.761 314.202 264.497 314.089 264.285 313.862C264.058 313.65 263.945 313.386 263.945 313.068ZM276.335 315.563V322.911C276.335 324.363 275.942 325.474 275.156 326.245C274.369 327.016 273.319 327.402 272.003 327.402C270.763 327.402 269.614 327.001 268.556 326.2L269.395 324.862C270.242 325.482 271.081 325.792 271.912 325.792C273.727 325.792 274.634 324.885 274.634 323.07V321.981C274.377 322.48 273.999 322.881 273.5 323.184C273.001 323.471 272.449 323.614 271.844 323.614C270.725 323.614 269.803 323.229 269.077 322.458C268.367 321.671 268.011 320.696 268.011 319.532C268.011 318.353 268.367 317.377 269.077 316.606C269.803 315.82 270.725 315.427 271.844 315.427C272.963 315.427 273.87 315.888 274.566 316.81V315.563H276.335ZM272.139 322.004C272.85 322.004 273.432 321.762 273.886 321.278C274.339 320.779 274.566 320.167 274.566 319.441C274.566 318.7 274.332 318.088 273.863 317.604C273.409 317.105 272.827 316.856 272.117 316.856C271.406 316.856 270.831 317.113 270.393 317.627C269.969 318.126 269.758 318.731 269.758 319.441C269.758 320.167 269.977 320.779 270.415 321.278C270.854 321.762 271.429 322.004 272.139 322.004ZM280.679 324H278.91V315.563H280.679V317.082C280.966 316.568 281.359 316.168 281.858 315.88C282.373 315.578 282.917 315.427 283.491 315.427C284.474 315.427 285.253 315.722 285.827 316.311C286.402 316.901 286.689 317.74 286.689 318.829V324H284.898V319.373C284.898 317.816 284.255 317.037 282.97 317.037C282.32 317.037 281.775 317.249 281.337 317.672C280.898 318.08 280.679 318.663 280.679 319.419V324ZM288.909 322.934C288.909 322.601 289.022 322.322 289.249 322.095C289.476 321.868 289.755 321.755 290.088 321.755C290.421 321.755 290.7 321.868 290.927 322.095C291.169 322.322 291.29 322.601 291.29 322.934C291.29 323.267 291.169 323.554 290.927 323.796C290.7 324.023 290.421 324.136 290.088 324.136C289.74 324.136 289.468 324.015 289.271 323.773C289.029 323.546 288.909 323.267 288.909 322.934ZM302.026 312.909C304.007 312.909 305.534 313.393 306.608 314.361C307.681 315.313 308.218 316.659 308.218 318.398C308.218 320.167 307.689 321.543 306.631 322.526C305.572 323.509 303.992 324 301.89 324H298.216V312.909H302.026ZM301.958 314.633H300.099V322.231H302.162C303.523 322.231 304.559 321.913 305.27 321.278C305.98 320.628 306.336 319.683 306.336 318.443C306.336 315.903 304.877 314.633 301.958 314.633ZM317.19 324H315.58V322.866C314.869 323.713 313.931 324.136 312.767 324.136C311.875 324.136 311.142 323.887 310.567 323.388C310.008 322.874 309.728 322.208 309.728 321.392C309.728 320.575 310.03 319.955 310.635 319.532C311.24 319.109 312.072 318.897 313.13 318.897H315.444V318.579C315.444 317.46 314.816 316.901 313.561 316.901C312.775 316.901 311.958 317.188 311.112 317.763L310.318 316.652C311.361 315.835 312.525 315.427 313.811 315.427C314.854 315.427 315.678 315.691 316.283 316.221C316.887 316.735 317.19 317.513 317.19 318.557V324ZM315.421 320.144H313.425C312.14 320.144 311.497 320.545 311.497 321.346C311.497 321.755 311.656 322.072 311.973 322.299C312.291 322.511 312.737 322.616 313.312 322.616C313.901 322.616 314.4 322.458 314.808 322.14C315.217 321.808 315.421 321.377 315.421 320.847V320.144ZM321.865 316.992V321.278C321.865 321.687 321.97 322.012 322.182 322.254C322.409 322.48 322.711 322.594 323.089 322.594C323.437 322.594 323.8 322.405 324.178 322.027L324.904 323.297C324.269 323.856 323.581 324.136 322.84 324.136C322.069 324.136 321.419 323.871 320.889 323.342C320.36 322.798 320.096 322.095 320.096 321.233V316.992H319.03V315.563H320.096V312.909H321.865V315.563H324.087V316.992H321.865ZM333.153 324H331.542V322.866C330.832 323.713 329.894 324.136 328.73 324.136C327.838 324.136 327.105 323.887 326.53 323.388C325.971 322.874 325.691 322.208 325.691 321.392C325.691 320.575 325.993 319.955 326.598 319.532C327.203 319.109 328.035 318.897 329.093 318.897H331.406V318.579C331.406 317.46 330.779 316.901 329.524 316.901C328.738 316.901 327.921 317.188 327.074 317.763L326.281 316.652C327.324 315.835 328.488 315.427 329.773 315.427C330.817 315.427 331.641 315.691 332.246 316.221C332.85 316.735 333.153 317.513 333.153 318.557V324ZM331.384 320.144H329.388C328.103 320.144 327.46 320.545 327.46 321.346C327.46 321.755 327.619 322.072 327.936 322.299C328.254 322.511 328.7 322.616 329.274 322.616C329.864 322.616 330.363 322.458 330.771 322.14C331.18 321.808 331.384 321.377 331.384 320.847V320.144ZM335.401 322.934C335.401 322.601 335.514 322.322 335.741 322.095C335.968 321.868 336.247 321.755 336.58 321.755C336.913 321.755 337.192 321.868 337.419 322.095C337.661 322.322 337.782 322.601 337.782 322.934C337.782 323.267 337.661 323.554 337.419 323.796C337.192 324.023 336.913 324.136 336.58 324.136C336.232 324.136 335.96 324.015 335.764 323.773C335.522 323.546 335.401 323.267 335.401 322.934Z" fill="white"/>
<circle cx="10.5" cy="10.5" r="10.5" transform="matrix(-1.31134e-07 1 1 1.31134e-07 170 188)" fill="#3F612D"/>
<ellipse cx="226" cy="192" rx="7" ry="7" transform="rotate(90 226 192)" fill="#9E2B25"/>
<ellipse cx="15" cy="15" rx="15" ry="15" transform="matrix(-1.31134e-07 1 1 1.31134e-07 190 152)" fill="#F4CB15"/>
</svg>
